<?xml version="1.0" encoding="utf-8"?>
<!-- Generator: Adobe Illustrator 26.0.0, SVG Export Plug-In . SVG Version: 6.00 Build 0)  -->
<svg version="1.1" id="Capa_1" xmlns="http://www.w3.org/2000/svg" xmlns:xlink="http://www.w3.org/1999/xlink" x="0px" y="0px"
	 viewBox="0 0 864.7 517.5" style="enable-background:new 0 0 864.7 517.5;" xml:space="preserve">
<style type="text/css">
	.st0{fill:#FFFFFF;}
	.st1{fill:#D80F38;}
	.st2{fill:#EC634E;}
	.st3{fill:#75C096;}
	.st4{fill:#ED8FBB;}
	.st5{fill:#FFF5AF;}
</style>
<path class="st0" d="M272.5,272.4"/>
<g>
	<g>
		<path class="st1" d="M364.9,257.8c-10.3-3.1-21-6.4-34.3-14.7c-13.3-8.3-21.9-16.9-25-20.2c-8.8-9.5-13.5-17.9-15.5-22l0,0
			c-2.8-5.7-5.4-11.1-5.8-18.9c-0.2-3.8,0.1-7.6,1-11.3l-3,0l3.9-3.3c0.1-0.2,0.1-0.3,0.2-0.5c0.5-1.6,1.2-3.2,1.9-4.8
			c0.9-1.9,1.9-3.7,3.1-5.4l0.7-1l1.3,0c2.2,0,3.5-0.4,3.5-0.4c0,0,0,0,0,0l2.6-1c0,0-0.2,7.4-3,10.5c4.8-1.1,10.8-3.5,13.9-8.5
			c5-8.1,7.4-10.1,7.8-10.4l3.5-2.6l1.8,19.5c1.8-4.2,4.3-9.6,7.3-15.2c4.4-8.4,4.3-12.1,4.2-12.6l-0.7-2l2.3-0.8
			c0.7-0.2,16.6-5.4,28.9,3c3,2.1,5.3,3.7,7.1,5c-1-2.7-2.7-5.8-5.5-7.7c-4.8-3.3-5.3-3.9-5.5-4.1l-4.6-5.9l7.2,2.1
			c0.4,0.1,9.6,2.7,15.9-4.2l0.9-1l1.3,0.2c1.2,0.2,2.5,0.4,3.7,0.7c5.5,1.2,10.3,3.4,14.1,6.3c1.9,1.5,5.7,4.9,8.9,10.6
			c2.6,4.5,8.5,17.9,8,44.6c-0.4,21.1-4.6,35.4-7.3,44.9c-2,6.8-4.9,14.8-11.4,22.6c-2.8,3.3-6.6,7.9-13,10.1
			c-0.9,0.3-1.7,0.5-2.6,0.7C377.2,261.1,372.2,260.1,364.9,257.8z M371.2,129.8c6.7,5.9,7.3,15.8,7.4,16.3l0.4,6.1l-4.4-4.2
			c0,0-2.4-2.3-11.9-8.8c-8.2-5.6-18.9-3.8-22.9-2.9c-0.2,2.4-1.2,6.8-4.8,13.6c-6.5,12.4-10.7,23.7-10.8,23.8l-3.7,10l-2.7-29.9
			c-0.9,1.3-2,2.9-3.4,5.1c-6.1,9.9-19.9,11.5-24.2,11.8c-1,3.7-1.4,7.4-1.1,11.1c0.4,6.9,2.7,11.6,5.4,17.1l0,0
			c1.9,3.9,6.3,11.8,14.7,20.8c2.9,3.2,11.2,11.4,24,19.4c12.9,8,22.7,11,33.2,14.2c7.6,2.3,12.3,3.2,17.1,1.5
			c5.1-1.7,8.3-5.6,10.8-8.6c5.9-7.1,8.6-14.5,10.5-20.9c2.9-9.8,6.8-23.2,7.1-43.6c0.5-25.5-5-38-7.4-42.1
			c-2.9-5.2-6.4-8.1-7.7-9.1c-3.2-2.5-7.4-4.3-12.2-5.4c-0.7-0.2-1.4-0.3-2.1-0.4C378.8,128,374.7,129.4,371.2,129.8z M334.8,134.9
			L334.8,134.9L334.8,134.9z M364.9,125.2C364.9,125.2,364.9,125.2,364.9,125.2S364.9,125.2,364.9,125.2z"/>
		<path class="st1" d="M317.7,153.8c-0.9,1.3-2,2.9-3.4,5.1c-7.2,11.5-24.8,11.8-25.5,11.8l-6.7,0.1l9.4-7.8l0.1-0.1
			c1.1-0.7,1.9-1.5,2.4-2.3c-0.3,0-0.5,0-0.8,0c-3.2,0-6.5-0.7-9.8-2c-8.9-3.6-10.6-9.7-10.7-10l-1.2-4.4l4.3,1.5
			c3.9,1.4,11.3,3.5,14.2,3c4.4-0.7,6.6-3.2,12.1-9.2c0.6-0.6,1.1-1.3,1.8-1.9c7.2-7.9,16.1-12.6,19.9-13.2c2.5-0.5,7.9-3,14.2-7.5
			c4.5-3.2,11.4-3.6,19.4-4c4.7-0.2,9.5-0.5,14.1-1.3c10.8-2,14.6-14,14.6-14.1l2.1-7.1l2.4,7c0.2,0.6,5,14.7-5.5,23.6
			c-0.3,0.2-0.5,0.7-0.8,1.2c-0.3,0.5-0.6,1.1-1.1,1.6c-3.8,4.2-8.3,5.7-12.1,6.2c6.7,5.9,7.3,15.8,7.4,16.3l0.4,6.1l-4.4-4.2
			c0,0-2.4-2.3-11.9-8.8c-8.2-5.6-18.9-3.9-22.9-2.9c-0.2,2.4-1.2,6.8-4.8,13.6c-6.5,12.4-10.7,23.7-10.8,23.8l-3.7,10L317.7,153.8z
			 M334.1,132.9l2.3-0.8c0.7-0.2,16.6-5.4,28.9,3c3,2.1,5.3,3.7,7.1,5c-1-2.7-2.7-5.8-5.5-7.7c-4.8-3.3-5.3-3.9-5.5-4.1l-4.6-5.9
			l7.2,2.1c0.4,0.1,9.6,2.7,15.9-4.2c0.2-0.2,0.4-0.5,0.6-0.9c0.4-0.7,1-1.6,1.9-2.4c3.8-3.2,4.9-7.5,5-11.1
			c-2.7,4.1-7.3,8.6-14.3,10.1c-0.2,0-0.3,0.1-0.5,0.1c-4.9,0.9-9.9,1.1-14.8,1.4c-6.9,0.3-13.5,0.7-16.8,3.1
			c-6.2,4.5-12.4,7.7-16.2,8.4c-2.3,0.4-10.5,4.4-17.2,11.7c-0.6,0.7-1.2,1.3-1.7,1.9c-5.8,6.4-8.8,9.7-14.8,10.7
			c-2.3,0.4-5.7-0.1-8.8-0.9c0.9,0.5,1.9,1.1,3.1,1.6c2.7,1.1,5.4,1.7,8,1.7c2.2,0,3.5-0.4,3.5-0.4c0,0,0,0,0,0l2.6-1
			c0,0,0.2,7.5-2.5,10.4c4.8-1.2,10.4-3.6,13.5-8.4c5-8.1,7.4-10.1,7.8-10.4l3.5-2.6l1.8,19.5c1.8-4.2,4.3-9.6,7.3-15.2
			c4.4-8.4,4.3-12.1,4.2-12.6L334.1,132.9z M334.8,134.9C334.8,134.9,334.8,134.9,334.8,134.9C334.8,134.9,334.8,134.9,334.8,134.9z
			 M364.9,125.2C364.9,125.2,364.9,125.2,364.9,125.2C364.9,125.2,364.9,125.2,364.9,125.2z"/>
		<path class="st1" d="M326.8,123.4l4.5-1.7c-1.2-3.3-2.5-6.5-3.9-9.6c-0.6-1.3-1.1-2.5-1.6-3.5c-1.3-2.7-2.2-4.7-3.1-7.7
			c-1.3-4.2-2-6.4-1.4-7.4c1.1-1.7,4.6-1.9,6.6-1.8c1.2,0.1,4,0.3,4.8,1.6c0.5,0.7,0.1,1.8-0.9,4.2c-0.9,2.2-2,4.9-2.1,8.2
			c-0.2,4.9,1.6,9.9,5.5,14.9l3.8-2.9c-3.1-4.1-4.6-8.1-4.5-11.8c0.1-2.5,1-4.6,1.8-6.7c1.1-2.8,2.3-5.7,0.5-8.5
			c-2.1-3.4-6.6-3.7-8.5-3.9c-1.9-0.2-8.3-0.3-11,4c-1.8,3-0.8,6.2,0.9,11.4c1,3.3,2.1,5.5,3.4,8.3c0.5,1,1,2.1,1.6,3.4
			C324.4,117.1,325.6,120.3,326.8,123.4z"/>
	</g>
	<path class="st1" d="M393.4,161.3L393.4,161.3L393.4,161.3c0.4-0.7,1.5-2.9,0.9-5.5c-0.2-0.7-0.8-3.2-2.9-4c-0.2-0.1-1.7-0.7-2.8,0
		c-1.6,1.1-0.8,4.5-0.6,5.1c0.2,0.9,1.4,3.7,2.6,4.5C391.8,162.2,392.5,161.7,393.4,161.3"/>
	<path class="st1" d="M349.9,167.3L349.9,167.3L349.9,167.3c0.4-0.7,1.5-2.9,0.9-5.5c-0.2-0.7-0.8-3.2-2.9-4c-0.2-0.1-1.7-0.7-2.8,0
		c-1.6,1.1-0.8,4.5-0.6,5.1c0.2,0.9,1.4,3.7,2.6,4.5C348.3,168.2,349,167.7,349.9,167.3"/>
	<path class="st1" d="M316.1,197.8L316.1,197.8L316.1,197.8c0.4-0.7,1.5-2.9,0.9-5.5c-0.2-0.7-0.8-3.2-2.9-4c-0.2-0.1-1.7-0.7-2.8,0
		c-1.6,1.1-0.8,4.5-0.6,5.1c0.2,0.9,1.4,3.7,2.6,4.5C314.5,198.7,315.2,198.2,316.1,197.8"/>
	<path class="st1" d="M378.5,185.1L378.5,185.1L378.5,185.1c0.4-0.7,1.5-2.9,0.9-5.5c-0.2-0.7-0.8-3.2-2.9-4c-0.2-0.1-1.7-0.7-2.8,0
		c-1.6,1.1-0.8,4.5-0.6,5.1c0.2,0.9,1.4,3.7,2.6,4.5C376.9,186,377.6,185.5,378.5,185.1"/>
	<path class="st1" d="M395.6,203.3L395.6,203.3L395.6,203.3c0.4-0.7,1.5-2.9,0.9-5.5c-0.2-0.7-0.8-3.2-2.9-4c-0.2-0.1-1.7-0.7-2.8,0
		c-1.6,1.1-0.8,4.5-0.6,5.1c0.2,0.9,1.4,3.7,2.6,4.5C394.1,204.2,394.8,203.7,395.6,203.3"/>
	<path class="st1" d="M367.7,217.2L367.7,217.2L367.7,217.2c0.4-0.7,1.5-2.9,0.9-5.5c-0.2-0.7-0.8-3.2-2.9-4c-0.2-0.1-1.7-0.7-2.8,0
		c-1.6,1.1-0.8,4.5-0.6,5.1c0.2,0.9,1.4,3.7,2.6,4.5C366.1,218.1,366.8,217.6,367.7,217.2"/>
	<path class="st1" d="M389.2,237.2L389.2,237.2L389.2,237.2c0.4-0.7,1.5-2.9,0.9-5.5c-0.2-0.7-0.8-3.2-2.9-4c-0.2-0.1-1.7-0.7-2.8,0
		c-1.6,1.1-0.8,4.5-0.6,5.1c0.2,0.9,1.4,3.7,2.6,4.5C387.7,238.1,388.4,237.6,389.2,237.2"/>
	<path class="st1" d="M366.5,244.8L366.5,244.8L366.5,244.8c0.4-0.7,1.5-2.9,0.9-5.5c-0.2-0.7-0.8-3.2-2.9-4c-0.2-0.1-1.7-0.7-2.8,0
		c-1.6,1.1-0.8,4.5-0.6,5.1c0.2,0.9,1.4,3.7,2.6,4.5C365,245.7,365.7,245.2,366.5,244.8"/>
	<path class="st1" d="M335.7,226.5L335.7,226.5L335.7,226.5c0.4-0.7,1.5-2.9,0.9-5.5c-0.2-0.7-0.8-3.2-2.9-4c-0.2-0.1-1.7-0.7-2.8,0
		c-1.6,1.1-0.8,4.5-0.6,5.1c0.2,0.9,1.4,3.7,2.6,4.5C334.2,227.4,334.9,226.9,335.7,226.5"/>
	<path class="st1" d="M342.3,200.7L342.3,200.7L342.3,200.7c0.4-0.7,1.5-2.9,0.9-5.5c-0.2-0.7-0.8-3.2-2.9-4c-0.2-0.1-1.7-0.7-2.8,0
		c-1.6,1.1-0.8,4.5-0.6,5.1c0.2,0.9,1.4,3.7,2.6,4.5C340.8,201.6,341.5,201.1,342.3,200.7"/>
</g>
<g>
	<g>
		<path class="st2" d="M462.9,264.2c-0.9-0.1-1.7-0.3-2.6-0.6c-6.4-1.9-10.4-6.4-13.3-9.6c-6.8-7.5-10-15.4-12.2-22.2
			c-3.1-9.4-7.9-23.5-9-44.6c-1.5-26.7,3.9-40.3,6.3-44.9c3-5.8,6.6-9.3,8.5-10.9c3.6-3,8.4-5.4,13.8-6.8c1.2-0.3,2.4-0.6,3.6-0.8
			l1.3-0.2l0.9,0.9c6.5,6.7,15.6,3.7,16,3.6l7.1-2.4l-4.4,6.1c-0.2,0.2-0.6,0.9-5.4,4.3c-2.8,2-4.3,5.1-5.2,7.9
			c1.7-1.4,4-3.1,6.9-5.3c12-8.9,28.1-4.3,28.7-4.1l2.3,0.7l-0.6,2.1c0,0.5,0,4.2,4.7,12.4c3.2,5.5,5.8,10.7,7.9,14.9l1-19.6
			l3.6,2.5c0.4,0.3,2.9,2.3,8.2,10.1c3.3,4.9,9.3,7,14.2,8c-2.9-3.1-3.4-10.4-3.4-10.4l2.7,0.9c0,0,0,0,0,0c0,0,1.3,0.4,3.5,0.3
			l1.3,0l0.8,1c1.3,1.7,2.4,3.4,3.4,5.3c0.8,1.5,1.5,3.1,2.1,4.7c0.1,0.2,0.1,0.3,0.2,0.5l4.1,3.1l-3,0.1c1,3.7,1.5,7.5,1.4,11.3
			c-0.1,7.9-2.6,13.3-5.1,19.1l0,0c-1.8,4.2-6.2,12.7-14.6,22.6c-3,3.4-11.2,12.4-24.2,21.1c-13.1,8.8-23.6,12.5-33.8,16
			C473,263.9,468,265.1,462.9,264.2z M457.7,128.8c-0.7,0.1-1.4,0.3-2.1,0.5c-4.7,1.3-8.9,3.3-12,5.9c-1.3,1.1-4.6,4.2-7.3,9.4
			c-2.2,4.3-7.2,16.9-5.8,42.4c1.1,20.4,5.6,33.6,8.8,43.3c2.1,6.3,5.1,13.6,11.3,20.5c2.7,3,6,6.7,11.2,8.2c4.8,1.4,9.5,0.4,17-2.2
			c10.3-3.6,20.1-7,32.6-15.4c12.5-8.4,20.4-17,23.3-20.3c8-9.4,12.2-17.4,13.9-21.4l0,0c2.5-5.6,4.6-10.4,4.7-17.3
			c0.1-3.7-0.5-7.5-1.6-11.1c-4.3-0.1-18.1-1.2-24.7-10.8c-1.4-2.1-2.6-3.7-3.5-4.9l-1.6,29.9l-4.1-9.9c0-0.1-4.7-11.3-11.7-23.4
			c-3.9-6.7-5-10.9-5.3-13.4c-4.1-0.8-14.8-2.2-22.8,3.7c-9.2,6.9-11.6,9.2-11.6,9.3l-4.3,4.3l0.1-6.1c0-0.5,0.3-10.4,6.7-16.5
			C465.5,133.4,461.3,132.2,457.7,128.8z M505.6,137.4L505.6,137.4L505.6,137.4z M475.1,128.8C475.1,128.8,475.1,128.8,475.1,128.8
			C475.1,128.8,475.1,128.8,475.1,128.8z"/>
		<path class="st2" d="M521.9,185.5l-4.1-9.9c0-0.1-4.7-11.3-11.7-23.4c-3.9-6.7-5-10.9-5.3-13.4c-4.1-0.8-14.8-2.2-22.8,3.7
			c-9.2,6.9-11.6,9.2-11.6,9.3l-4.3,4.3l0.1-6.1c0-0.5,0.3-10.4,6.7-16.5c-3.9-0.3-8.4-1.7-12.4-5.7c-0.5-0.5-0.9-1.1-1.2-1.6
			c-0.3-0.5-0.6-0.9-0.9-1.1c-10.8-8.4-6.6-22.7-6.4-23.3l2.2-7.1l2.4,7.1c0,0.1,4.3,12,15.2,13.5c4.7,0.7,9.5,0.7,14.2,0.8
			c8,0.1,14.9,0.2,19.5,3.2c6.5,4.3,11.9,6.6,14.5,7c3.8,0.5,12.9,4.9,20.4,12.5c0.6,0.7,1.2,1.3,1.8,1.9c5.6,5.8,8,8.2,12.4,8.7
			c3,0.4,10.2-1.9,14.1-3.5l4.2-1.7l-1,4.5c-0.1,0.3-1.5,6.5-10.3,10.4c-3.3,1.5-6.5,2.3-9.7,2.4c-0.3,0-0.5,0-0.8,0
			c0.5,0.8,1.3,1.6,2.5,2.2l0.1,0.1l9.7,7.5l-6.7,0.2c-0.7,0-18.3,0.4-25.9-10.8c-1.4-2.1-2.6-3.7-3.5-4.9L521.9,185.5z
			 M505.6,137.4c0,0.5,0,4.2,4.7,12.4c3.2,5.5,5.8,10.7,7.9,14.9l1-19.6l3.6,2.5c0.4,0.3,2.9,2.3,8.2,10.1c3.2,4.7,9,6.9,13.8,7.9
			c-2.8-2.8-2.9-10.3-2.9-10.3l2.7,0.9c0,0,0,0,0,0c0,0,1.3,0.4,3.5,0.3c2.6-0.1,5.2-0.8,7.9-2c1.2-0.5,2.2-1.1,3-1.7
			c-3.1,0.8-6.4,1.5-8.7,1.2c-6.1-0.8-9.1-3.9-15.2-10.1c-0.6-0.6-1.2-1.2-1.8-1.8c-7-7.1-15.4-10.7-17.7-11.1
			c-3.8-0.5-10.1-3.5-16.5-7.7c-3.4-2.3-10-2.3-16.9-2.4c-4.8-0.1-9.8-0.1-14.8-0.8c-0.2,0-0.3-0.1-0.5-0.1
			c-7.1-1.2-11.8-5.6-14.7-9.5c0.2,3.6,1.5,7.8,5.5,10.9c0.9,0.7,1.5,1.6,1.9,2.3c0.2,0.3,0.4,0.7,0.6,0.9c6.5,6.7,15.6,3.7,16,3.6
			l7.1-2.4l-4.4,6.1c-0.2,0.2-0.6,0.9-5.4,4.3c-2.8,2-4.3,5.1-5.2,7.9c1.7-1.4,4-3.1,6.9-5.3c12-8.9,28.1-4.3,28.7-4.1l2.3,0.7
			L505.6,137.4z M505.6,137.4C505.6,137.4,505.6,137.4,505.6,137.4S505.6,137.4,505.6,137.4z M475.1,128.8
			C475.1,128.8,475.1,128.8,475.1,128.8C475.1,128.8,475.1,128.8,475.1,128.8z"/>
		<path class="st2" d="M513.1,125.6l-4.6-1.5c1.1-3.3,2.3-6.6,3.6-9.7c0.5-1.3,1-2.5,1.5-3.6c1.2-2.8,2-4.8,2.8-7.8
			c1.2-4.2,1.8-6.5,1.1-7.5c-1.1-1.7-4.7-1.8-6.6-1.5c-1.2,0.1-4,0.5-4.7,1.8c-0.4,0.7,0,1.8,1,4.2c1,2.1,2.2,4.8,2.5,8.1
			c0.4,4.9-1.2,10-4.9,15.1l-3.9-2.8c3-4.2,4.3-8.2,4-11.9c-0.2-2.5-1.2-4.6-2.1-6.6c-1.2-2.7-2.5-5.6-0.8-8.5c2-3.5,6.4-4,8.3-4.2
			c1.9-0.2,8.3-0.7,11.2,3.6c1.9,2.9,1.1,6.1-0.4,11.5c-0.9,3.3-1.9,5.5-3,8.4c-0.4,1-0.9,2.2-1.4,3.5
			C515.4,119.2,514.2,122.4,513.1,125.6z"/>
	</g>
	<path class="st2" d="M448.1,166L448.1,166L448.1,166c-0.4-0.7-1.6-2.8-1.1-5.5c0.1-0.7,0.6-3.2,2.7-4.1c0.2-0.1,1.7-0.8,2.8-0.1
		c1.7,1,0.9,4.4,0.8,5.1c-0.2,0.9-1.3,3.8-2.4,4.6S449,166.4,448.1,166"/>
	<path class="st2" d="M491.8,170.3L491.8,170.3L491.8,170.3c-0.4-0.7-1.6-2.8-1.1-5.5c0.1-0.7,0.6-3.2,2.7-4.1
		c0.2-0.1,1.7-0.8,2.8-0.1c1.7,1,0.9,4.4,0.8,5.1c-0.2,0.9-1.3,3.8-2.4,4.6C493.4,171.2,492.6,170.7,491.8,170.3"/>
	<path class="st2" d="M526.7,199.5L526.7,199.5L526.7,199.5c-0.4-0.7-1.6-2.8-1.1-5.5c0.1-0.7,0.6-3.2,2.7-4.1
		c0.2-0.1,1.7-0.8,2.8-0.1c1.7,1,0.9,4.4,0.8,5.1c-0.2,0.9-1.3,3.8-2.4,4.6C528.3,200.3,527.6,199.9,526.7,199.5"/>
	<path class="st2" d="M463.9,189.2L463.9,189.2L463.9,189.2c-0.4-0.7-1.6-2.8-1.1-5.5c0.1-0.7,0.6-3.2,2.7-4.1
		c0.2-0.1,1.7-0.8,2.8-0.1c1.7,1,0.9,4.4,0.8,5.1c-0.2,0.9-1.3,3.8-2.4,4.6S464.7,189.6,463.9,189.2"/>
	<path class="st2" d="M447.5,208L447.5,208L447.5,208c-0.4-0.7-1.6-2.8-1.1-5.5c0.1-0.7,0.6-3.2,2.7-4.1c0.2-0.1,1.7-0.8,2.8-0.1
		c1.7,1,0.9,4.4,0.8,5.1c-0.2,0.9-1.3,3.8-2.4,4.6C449,208.9,448.3,208.4,447.5,208"/>
	<path class="st2" d="M475.9,220.8L475.9,220.8L475.9,220.8c-0.4-0.7-1.6-2.8-1.1-5.5c0.1-0.7,0.6-3.2,2.7-4.1
		c0.2-0.1,1.7-0.8,2.8-0.1c1.7,1,0.9,4.4,0.8,5.1c-0.2,0.9-1.3,3.8-2.4,4.6S476.8,221.2,475.9,220.8"/>
	<path class="st2" d="M455.1,241.7L455.1,241.7L455.1,241.7c-0.4-0.7-1.6-2.8-1.1-5.5c0.1-0.7,0.6-3.2,2.7-4.1
		c0.2-0.1,1.7-0.8,2.8-0.1c1.7,1,0.9,4.4,0.8,5.1c-0.2,0.9-1.3,3.8-2.4,4.6S456,242,455.1,241.7"/>
	<path class="st2" d="M478.1,248.4L478.1,248.4L478.1,248.4c-0.4-0.7-1.6-2.8-1.1-5.5c0.1-0.7,0.6-3.2,2.7-4.1
		c0.2-0.1,1.7-0.8,2.8-0.1c1.7,1,0.9,4.4,0.8,5.1c-0.2,0.9-1.3,3.8-2.4,4.6C479.7,249.2,478.9,248.8,478.1,248.4"/>
	<path class="st2" d="M508.2,229L508.2,229L508.2,229c-0.4-0.7-1.6-2.8-1.1-5.5c0.1-0.7,0.6-3.2,2.7-4.1c0.2-0.1,1.7-0.8,2.8-0.1
		c1.7,1,0.9,4.4,0.8,5.1c-0.2,0.9-1.3,3.8-2.4,4.6C509.8,229.8,509.1,229.3,508.2,229"/>
	<path class="st2" d="M500.6,203.4L500.6,203.4L500.6,203.4c-0.4-0.7-1.6-2.8-1.1-5.5c0.1-0.7,0.6-3.2,2.7-4.1
		c0.2-0.1,1.7-0.8,2.8-0.1c1.7,1,0.9,4.4,0.8,5.1c-0.2,0.9-1.3,3.8-2.4,4.6S501.5,203.8,500.6,203.4"/>
</g>
<g>
	<g>
		<path class="st3" d="M308.9,415.7c-10.6-2.1-21.5-4.4-35.6-11.4c-14-7-23.4-14.7-26.8-17.7c-9.7-8.6-15.1-16.5-17.5-20.4l0,0
			c-3.3-5.4-6.4-10.5-7.6-18.3c-0.6-3.8-0.6-7.6-0.1-11.4l-3,0.3l3.6-3.6c0-0.2,0.1-0.3,0.1-0.5c0.4-1.7,0.9-3.3,1.4-4.9
			c0.7-2,1.6-3.9,2.6-5.7l0.6-1.1l1.2-0.1c2.2-0.2,3.4-0.8,3.4-0.8c0,0,0,0,0,0l2.5-1.2c0,0,0.5,7.4-1.9,10.8
			c4.7-1.6,10.4-4.5,13-9.8c4.2-8.5,6.4-10.7,6.8-11.1l3.2-3l3.6,19.3c1.4-4.4,3.4-10,5.8-15.8c3.6-8.8,3.1-12.5,3-12.9l-0.9-2
			l2.2-1c0.6-0.3,16-7,29,0.3c3.2,1.8,5.6,3.2,7.5,4.3c-1.3-2.6-3.2-5.5-6.2-7.1c-5.1-2.8-5.7-3.4-5.9-3.6l-5.2-5.5l7.4,1.4
			c0.4,0.1,9.8,1.8,15.4-5.7l0.8-1l1.3,0.1c1.3,0.1,2.5,0.2,3.7,0.3c5.5,0.7,10.6,2.4,14.6,4.9c2.1,1.3,6.1,4.3,9.9,9.7
			c3,4.2,10.1,17,12.2,43.6c1.6,21-1.2,35.7-3,45.4c-1.3,7-3.5,15.2-9.2,23.6c-2.5,3.6-5.8,8.5-12,11.3c-0.8,0.4-1.7,0.7-2.5,0.9
			C321.6,417.8,316.5,417.3,308.9,415.7z M303.1,287.7c7.2,5.2,8.8,15.1,8.9,15.5l0.9,6l-4.8-3.7c0,0-2.7-2-12.7-7.6
			c-8.7-4.8-19.2-2-23.1-0.7c0,2.4-0.5,6.8-3.5,13.9c-5.3,12.9-8.4,24.6-8.5,24.7l-2.7,10.3l-5.5-29.5c-0.8,1.4-1.7,3.1-2.9,5.4
			c-5.2,10.4-18.7,13.3-23,14c-0.6,3.7-0.6,7.5-0.1,11.2c1,6.8,3.8,11.3,7,16.5l0,0c2.2,3.7,7.4,11.1,16.6,19.3
			c3.2,2.9,12.2,10.3,25.7,17c13.6,6.7,23.7,8.8,34.4,11c7.8,1.6,12.5,2,17.1-0.1c4.9-2.2,7.7-6.3,10-9.6c5.2-7.6,7.2-15.3,8.4-21.8
			c1.9-10,4.5-23.7,3-44.1c-2-25.5-8.6-37.3-11.3-41.3c-3.4-4.9-7.1-7.5-8.5-8.4c-3.4-2.1-7.8-3.6-12.7-4.2
			c-0.7-0.1-1.4-0.2-2.1-0.2C310.6,285.2,306.6,286.9,303.1,287.7z M267.4,296.2L267.4,296.2L267.4,296.2z M296.5,283.7
			C296.5,283.7,296.5,283.7,296.5,283.7S296.5,283.7,296.5,283.7z"/>
		<path class="st3" d="M252.1,316.7c-0.8,1.4-1.7,3.1-2.9,5.4c-6.1,12.1-23.5,14.1-24.3,14.2l-6.7,0.7l8.6-8.7l0.1-0.1
			c1.1-0.8,1.7-1.7,2.2-2.5c-0.3,0-0.5,0.1-0.8,0.1c-3.2,0.3-6.5-0.1-10-1.1c-9.2-2.7-11.5-8.7-11.6-8.9l-1.6-4.3l4.4,1.1
			c4,1,11.6,2.4,14.5,1.6c4.3-1.1,6.3-3.8,11.1-10.3c0.5-0.7,1-1.4,1.6-2.1c6.4-8.5,14.9-14,18.6-15.1c2.5-0.7,7.6-3.7,13.4-8.8
			c4.1-3.6,11-4.6,18.9-5.8c4.6-0.7,9.4-1.4,13.9-2.6c10.6-3,13.2-15.3,13.2-15.4l1.4-7.3l3.1,6.8c0.3,0.6,6.3,14.2-3.2,24
			c-0.3,0.3-0.5,0.7-0.7,1.2c-0.3,0.5-0.5,1.1-1,1.7c-3.3,4.5-7.7,6.5-11.5,7.3c7.2,5.2,8.8,15.1,8.9,15.5l0.9,6l-4.8-3.7
			c0,0-2.7-2-12.7-7.6c-8.7-4.8-19.2-2-23.1-0.7c0,2.4-0.5,6.8-3.5,13.9c-5.3,12.9-8.4,24.6-8.5,24.7l-2.7,10.3L252.1,316.7z
			 M266.5,294.3l2.2-1c0.6-0.3,16-7,29,0.3c3.2,1.8,5.6,3.2,7.5,4.3c-1.3-2.6-3.2-5.5-6.2-7.1c-5.1-2.8-5.7-3.4-5.9-3.6l-5.2-5.5
			l7.4,1.4c0.4,0.1,9.8,1.8,15.4-5.7c0.2-0.2,0.3-0.6,0.5-0.9c0.4-0.7,0.8-1.7,1.6-2.5c3.5-3.6,4.2-8,4-11.6
			c-2.3,4.3-6.4,9.3-13.3,11.4c-0.2,0.1-0.3,0.1-0.5,0.1c-4.8,1.4-9.8,2.1-14.6,2.8c-6.9,1-13.4,1.9-16.4,4.6
			c-5.7,5-11.6,8.8-15.3,9.8c-2.2,0.6-10,5.4-16,13.3c-0.5,0.7-1.1,1.4-1.6,2.1c-5.2,7-7.8,10.5-13.8,12.1c-2.3,0.6-5.7,0.4-8.8,0
			c0.9,0.5,2,0.9,3.2,1.3c2.8,0.8,5.6,1.1,8.1,0.9c2.2-0.2,3.4-0.8,3.4-0.8c0,0,0,0,0,0l2.5-1.2c0,0,0.9,7.5-1.5,10.6
			c4.6-1.6,10.1-4.5,12.6-9.6c4.2-8.5,6.4-10.7,6.8-11.1l3.2-3l3.6,19.3c1.4-4.4,3.4-10,5.8-15.8c3.6-8.8,3.1-12.5,3-12.9
			L266.5,294.3z M267.4,296.2C267.4,296.2,267.4,296.2,267.4,296.2C267.4,296.2,267.4,296.2,267.4,296.2z M296.5,283.7
			C296.5,283.7,296.5,283.7,296.5,283.7C296.5,283.7,296.5,283.7,296.5,283.7z"/>
		<path class="st3" d="M258.4,285.6l4.3-2.1c-1.5-3.1-3.1-6.2-4.8-9.1c-0.7-1.3-1.4-2.4-1.9-3.3c-1.5-2.6-2.6-4.5-3.9-7.4
			c-1.7-4-2.6-6.2-2.1-7.3c0.9-1.8,4.4-2.4,6.4-2.4c1.2,0,4,0,4.9,1.2c0.5,0.7,0.3,1.8-0.5,4.3c-0.7,2.2-1.5,5-1.4,8.4
			c0.2,4.9,2.5,9.7,6.8,14.3l3.5-3.3c-3.5-3.8-5.4-7.6-5.6-11.3c-0.1-2.5,0.5-4.7,1.2-6.8c0.9-2.9,1.8-5.9-0.3-8.6
			c-2.4-3.2-6.9-3.1-8.8-3.1c-1.9,0-8.3,0.5-10.6,5.1c-1.5,3.1-0.2,6.2,2,11.3c1.4,3.2,2.6,5.2,4.1,7.9c0.6,1,1.2,2,1.9,3.3
			C255.3,279.5,256.9,282.5,258.4,285.6z"/>
	</g>
	<path class="st3" d="M328.2,317L328.2,317L328.2,317c0.3-0.7,1.2-3,0.4-5.6c-0.2-0.7-1-3.1-3.2-3.7c-0.2-0.1-1.8-0.5-2.7,0.3
		c-1.5,1.3-0.3,4.5-0.1,5.1c0.3,0.9,1.7,3.6,3,4.3C326.7,318,327.4,317.5,328.2,317"/>
	<path class="st3" d="M285.5,327.1L285.5,327.1L285.5,327.1c0.3-0.7,1.2-3,0.4-5.6c-0.2-0.7-1-3.1-3.2-3.7c-0.2-0.1-1.8-0.5-2.7,0.3
		c-1.5,1.3-0.3,4.5-0.1,5.1c0.3,0.9,1.7,3.6,3,4.3C284,328.1,284.7,327.5,285.5,327.1"/>
	<path class="st3" d="M254.7,360.6L254.7,360.6L254.7,360.6c0.3-0.7,1.2-3,0.4-5.6c-0.2-0.7-1-3.1-3.2-3.7c-0.2-0.1-1.8-0.5-2.7,0.3
		c-1.5,1.3-0.3,4.5-0.1,5.1c0.3,0.9,1.7,3.6,3,4.3C253.2,361.6,253.9,361.1,254.7,360.6"/>
	<path class="st3" d="M315.6,342.1L315.6,342.1L315.6,342.1c0.3-0.7,1.2-3,0.4-5.6c-0.2-0.7-1-3.1-3.2-3.7c-0.2-0.1-1.8-0.5-2.7,0.3
		c-1.5,1.3-0.3,4.5-0.1,5.1c0.3,0.9,1.7,3.6,3,4.3C314.2,343.1,314.8,342.6,315.6,342.1"/>
	<path class="st3" d="M334.4,358.6L334.4,358.6L334.4,358.6c0.3-0.7,1.2-3,0.4-5.6c-0.2-0.7-1-3.1-3.2-3.7c-0.2-0.1-1.8-0.5-2.7,0.3
		c-1.5,1.3-0.3,4.5-0.1,5.1c0.3,0.9,1.7,3.6,3,4.3C332.9,359.6,333.6,359,334.4,358.6"/>
	<path class="st3" d="M307.9,375L307.9,375L307.9,375c0.3-0.7,1.2-3,0.4-5.6c-0.2-0.7-1-3.1-3.2-3.7c-0.2-0.1-1.8-0.5-2.7,0.3
		c-1.5,1.3-0.3,4.5-0.1,5.1c0.3,0.9,1.7,3.6,3,4.3C306.4,376,307.1,375.5,307.9,375"/>
	<path class="st3" d="M331.2,392.9L331.2,392.9L331.2,392.9c0.3-0.7,1.2-3,0.4-5.6c-0.2-0.7-1-3.1-3.2-3.7c-0.2-0.1-1.8-0.5-2.7,0.3
		c-1.5,1.3-0.3,4.5-0.1,5.1c0.3,0.9,1.7,3.6,3,4.3S330.4,393.4,331.2,392.9"/>
	<path class="st3" d="M309.4,402.6L309.4,402.6L309.4,402.6c0.3-0.7,1.2-3,0.4-5.6c-0.2-0.7-1-3.1-3.2-3.7c-0.2-0.1-1.8-0.5-2.7,0.3
		c-1.5,1.3-0.3,4.5-0.1,5.1c0.3,0.9,1.7,3.6,3,4.3C307.9,403.7,308.6,403.1,309.4,402.6"/>
	<path class="st3" d="M277,387.4L277,387.4L277,387.4c0.3-0.7,1.2-3,0.4-5.6c-0.2-0.7-1-3.1-3.2-3.7c-0.2-0.1-1.8-0.5-2.7,0.3
		c-1.5,1.3-0.3,4.5-0.1,5.1c0.3,0.9,1.7,3.6,3,4.3C275.5,388.4,276.2,387.8,277,387.4"/>
	<path class="st3" d="M281.1,361L281.1,361L281.1,361c0.3-0.7,1.2-3,0.4-5.6c-0.2-0.7-1-3.1-3.2-3.7c-0.2-0.1-1.8-0.5-2.7,0.3
		c-1.5,1.3-0.3,4.5-0.1,5.1c0.3,0.9,1.7,3.6,3,4.3S280.3,361.5,281.1,361"/>
</g>
<g>
	<g>
		<path class="st4" d="M419.7,423.5c-0.9,0.1-1.7,0.1-2.7,0.1c-6.7-0.1-11.8-3.3-15.4-5.7c-8.6-5.4-13.8-12.2-17.7-18.1
			c-5.5-8.2-13.9-20.5-20.7-40.5c-8.6-25.3-7.1-39.8-6-44.9c1.3-6.4,3.9-10.8,5.3-12.8c2.7-3.9,6.7-7.4,11.5-10.3
			c1.1-0.6,2.2-1.2,3.3-1.8l1.2-0.6l1.1,0.6c8,4.7,16-0.6,16.4-0.8l6.2-4.2l-2.6,7c-0.1,0.3-0.4,1-4,5.6c-2.1,2.7-2.8,6.1-2.9,9
			c1.3-1.8,3-4.1,5.2-6.9c9.1-11.8,25.9-11.7,26.6-11.7l2.4,0l0,2.2c0.1,0.5,1.1,4.1,7.9,10.7c4.5,4.4,8.5,8.8,11.6,12.3l-4.3-19.1
			l4.1,1.5c0.5,0.2,3.4,1.4,10.6,7.5c4.5,3.8,10.9,4.3,15.8,3.9c-3.6-2.2-6-9.1-6-9.1l2.8,0.1c0,0,0,0,0,0c0,0,1.4,0,3.5-0.6
			l1.2-0.4l1,0.8c1.7,1.3,3.2,2.7,4.7,4.2c1.2,1.2,2.3,2.6,3.3,4c0.1,0.1,0.2,0.3,0.3,0.4l4.7,1.9l-2.9,0.9c2,3.3,3.4,6.8,4.4,10.5
			c2,7.6,1.1,13.5,0.2,19.8l0,0c-0.6,4.6-2.6,13.9-8.1,25.7c-1.9,4.1-7.5,14.9-17.7,26.9c-10.2,12-19.4,18.3-28.2,24.5
			C429.3,420.4,424.8,422.9,419.7,423.5z M378.3,294.5c-0.6,0.3-1.3,0.7-1.9,1c-4.2,2.5-7.7,5.5-10,8.9c-1,1.4-3.3,5.2-4.5,11.1
			c-1,4.7-2.4,18.2,5.8,42.4c6.6,19.4,14.4,30.9,20.1,39.4c3.7,5.5,8.5,11.7,16.3,16.7c3.4,2.1,7.6,4.8,12.9,4.9
			c5,0.1,9.3-2.2,15.8-6.7c9-6.2,17.5-12.1,27.3-23.6c9.8-11.5,15.1-21.8,17-25.8c5.2-11.2,7-20,7.6-24.3l0,0
			c0.9-6,1.6-11.2-0.1-17.9c-0.9-3.6-2.4-7.1-4.5-10.3c-4.2,1.1-17.8,3.7-26.6-3.8c-1.9-1.6-3.5-2.8-4.7-3.8l6.5,29.3l-6.6-8.4
			c-0.1-0.1-7.5-9.6-17.5-19.4c-5.5-5.4-7.8-9.2-8.7-11.5c-4.2,0.3-14.9,1.9-21,9.7c-7,9.1-8.7,12-8.7,12l-2.9,5.3l-1.5-5.9
			c-0.1-0.4-2.5-10.1,2.1-17.7C387.1,296.7,382.7,296.7,378.3,294.5z M426.8,289.9L426.8,289.9L426.8,289.9z M395.1,289.8
			C395.1,289.8,395.1,289.8,395.1,289.8C395.1,289.8,395.1,289.8,395.1,289.8z"/>
		<path class="st4" d="M455.4,331.9l-6.6-8.4c-0.1-0.1-7.5-9.6-17.5-19.4c-5.5-5.4-7.8-9.2-8.7-11.5c-4.2,0.3-14.9,1.9-21,9.7
			c-7,9.1-8.7,12-8.7,12l-2.9,5.3l-1.5-5.9c-0.1-0.4-2.5-10.1,2.1-17.7c-3.8,0.7-8.6,0.6-13.4-2.2c-0.6-0.4-1.1-0.8-1.6-1.2
			c-0.4-0.4-0.8-0.7-1.2-0.9c-12.6-5.2-12.4-20.1-12.4-20.8l0.2-7.5l4.2,6.2c0.1,0.1,7.3,10.4,18.3,9c4.7-0.6,9.3-1.9,13.9-3.1
			c7.7-2.1,14.4-3.9,19.7-2.1c7.4,2.4,13.3,3.2,15.8,2.8c3.8-0.5,13.8,1.2,23,6.5c0.8,0.5,1.5,0.9,2.3,1.3c7,4,9.9,5.7,14.3,5.1
			c3-0.4,9.3-4.6,12.7-7.2l3.6-2.8l0.2,4.6c0,0.3,0.2,6.6-7.1,12.8c-2.7,2.3-5.7,3.9-8.7,4.9c-0.3,0.1-0.5,0.2-0.8,0.2
			c0.7,0.6,1.7,1.2,3,1.5l0.2,0l11.3,4.6l-6.4,2c-0.7,0.2-17.5,5.3-27.9-3.5c-1.9-1.6-3.5-2.8-4.7-3.8L455.4,331.9z M426.8,289.9
			c0.1,0.5,1.1,4.1,7.9,10.7c4.5,4.4,8.5,8.8,11.6,12.3l-4.3-19.1l4.1,1.5c0.5,0.2,3.4,1.4,10.6,7.5c4.4,3.7,10.5,4.2,15.4,3.9
			c-3.4-2-5.6-9.2-5.6-9.2l2.8,0.1c0,0,0,0,0,0c0,0,1.4,0,3.5-0.6c2.5-0.8,4.8-2.1,7.1-4c1-0.8,1.8-1.7,2.5-2.4
			c-2.7,1.6-5.8,3.2-8.1,3.5c-6.1,0.9-9.9-1.3-17.4-5.7c-0.7-0.4-1.5-0.8-2.2-1.3c-8.7-5-17.7-6.2-20-5.9c-3.8,0.5-10.7-0.7-17.9-3
			c-3.9-1.3-10.2,0.4-16.9,2.2c-4.7,1.2-9.5,2.5-14.5,3.2c-0.2,0-0.3,0-0.5,0.1c-7.1,0.8-12.8-2.2-16.7-5.2c1.2,3.4,3.6,7.2,8.2,9.1
			c1.1,0.4,1.9,1.1,2.5,1.7c0.3,0.3,0.6,0.5,0.8,0.7c8,4.7,16-0.6,16.4-0.8l6.2-4.2l-2.6,7c-0.1,0.3-0.4,1-4,5.6
			c-2.1,2.7-2.8,6.1-2.9,9c1.3-1.8,3-4.1,5.2-6.9c9.1-11.8,25.9-11.7,26.6-11.7l2.4,0L426.8,289.9z M426.8,289.9
			C426.8,289.9,426.8,289.9,426.8,289.9S426.8,289.9,426.8,289.9z M395.1,289.8C395.1,289.8,395.1,289.8,395.1,289.8
			C395.1,289.8,395.1,289.8,395.1,289.8z"/>
		<path class="st4" d="M430.9,276.5l-4.8-0.2c0.2-3.5,0.5-6.9,0.8-10.3c0.2-1.4,0.3-2.7,0.5-3.8c0.4-3,0.7-5.2,0.6-8.3
			c0-4.4,0-6.7-1-7.5c-1.6-1.3-5-0.4-6.8,0.3c-1.1,0.5-3.7,1.5-4.1,3c-0.2,0.8,0.5,1.8,2.1,3.7c1.5,1.8,3.4,4,4.6,7.2
			c1.7,4.6,1.5,9.9-0.6,15.9l-4.5-1.6c1.7-4.9,2-9.1,0.7-12.6c-0.9-2.4-2.3-4.1-3.7-5.8c-1.9-2.3-3.9-4.7-3.1-8
			c1-3.8,5.1-5.6,6.9-6.3c1.8-0.7,7.8-2.9,11.7,0.5c2.7,2.3,2.7,5.6,2.7,11.2c0,3.4-0.3,5.8-0.7,8.9c-0.1,1.1-0.3,2.3-0.5,3.8
			C431.3,269.7,431,273.1,430.9,276.5z"/>
	</g>
	<path class="st4" d="M379.1,332.9L379.1,332.9L379.1,332.9c-0.6-0.5-2.3-2.3-2.5-5c-0.1-0.7-0.2-3.2,1.5-4.7
		c0.2-0.2,1.4-1.2,2.6-0.8c1.9,0.6,2.1,4,2.1,4.7c0.1,1-0.2,4-1.1,5.1C380.8,333.2,380,333,379.1,332.9"/>
	<path class="st4" d="M422.3,325.3L422.3,325.3L422.3,325.3c-0.6-0.5-2.3-2.3-2.5-5c-0.1-0.7-0.2-3.2,1.5-4.7
		c0.2-0.2,1.4-1.2,2.6-0.8c1.9,0.6,2.1,4,2.1,4.7c0.1,1-0.2,4-1.1,5.1C424.1,325.7,423.2,325.4,422.3,325.3"/>
	<path class="st4" d="M463.8,344L463.8,344L463.8,344c-0.6-0.5-2.3-2.3-2.5-5c-0.1-0.7-0.2-3.2,1.5-4.7c0.2-0.2,1.4-1.2,2.6-0.8
		c1.9,0.6,2.1,4,2.1,4.7c0.1,1-0.2,4-1.1,5.1C465.6,344.4,464.7,344.1,463.8,344"/>
	<path class="st4" d="M400.5,351L400.5,351L400.5,351c-0.6-0.5-2.3-2.3-2.5-5c-0.1-0.7-0.2-3.2,1.5-4.7c0.2-0.2,1.4-1.2,2.6-0.8
		c1.9,0.6,2.1,4,2.1,4.7c0.1,1-0.2,4-1.1,5.1C402.2,351.4,401.4,351.1,400.5,351"/>
	<path class="st4" d="M389.7,373.5L389.7,373.5L389.7,373.5c-0.6-0.5-2.3-2.3-2.5-5c-0.1-0.7-0.2-3.2,1.5-4.7
		c0.2-0.2,1.4-1.2,2.6-0.8c1.9,0.6,2.1,4,2.1,4.7c0.1,1-0.2,4-1.1,5.1C391.5,373.9,390.7,373.7,389.7,373.5"/>
	<path class="st4" d="M420.6,378.2L420.6,378.2L420.6,378.2c-0.6-0.5-2.3-2.3-2.5-5c-0.1-0.7-0.2-3.2,1.5-4.7
		c0.2-0.2,1.4-1.2,2.6-0.8c1.9,0.6,2.1,4,2.1,4.7c0.1,1-0.2,4-1.1,5.1C422.3,378.6,421.5,378.3,420.6,378.2"/>
	<path class="st4" d="M406.2,403.8L406.2,403.8L406.2,403.8c-0.6-0.5-2.3-2.3-2.5-5c-0.1-0.7-0.2-3.2,1.5-4.7
		c0.2-0.2,1.4-1.2,2.6-0.8c1.9,0.6,2.1,4,2.1,4.7c0.1,1-0.2,4-1.1,5.1C407.9,404.2,407.1,404,406.2,403.8"/>
	<path class="st4" d="M430.1,404.2L430.1,404.2L430.1,404.2c-0.6-0.5-2.3-2.3-2.5-5c-0.1-0.7-0.2-3.2,1.5-4.7
		c0.2-0.2,1.4-1.2,2.6-0.8c1.9,0.6,2.1,4,2.1,4.7c0.1,1-0.2,4-1.1,5.1C431.8,404.6,431,404.3,430.1,404.2"/>
	<path class="st4" d="M453.9,377.4L453.9,377.4L453.9,377.4c-0.6-0.5-2.3-2.3-2.5-5c-0.1-0.7-0.2-3.2,1.5-4.7
		c0.2-0.2,1.4-1.2,2.6-0.8c1.9,0.6,2.1,4,2.1,4.7c0.1,1-0.2,4-1.1,5.1C455.6,377.8,454.8,377.5,453.9,377.4"/>
	<path class="st4" d="M439.7,354.8L439.7,354.8L439.7,354.8c-0.6-0.5-2.3-2.3-2.5-5c-0.1-0.7-0.2-3.2,1.5-4.7
		c0.2-0.2,1.4-1.2,2.6-0.8c1.9,0.6,2.1,4,2.1,4.7c0.1,1-0.2,4-1.1,5.1C441.4,355.2,440.6,354.9,439.7,354.8"/>
</g>
<g>
	<g>
		<path class="st5" d="M522.8,416.3c-0.8-0.2-1.7-0.5-2.5-0.9c-6.2-2.6-9.7-7.4-12.3-10.9c-6-8.2-8.4-16.3-10-23.3
			c-2.2-9.6-5.5-24.2-4.6-45.2c1.2-26.7,7.9-39.7,10.7-44c3.6-5.5,7.5-8.6,9.6-10c3.9-2.6,8.9-4.5,14.4-5.4c1.2-0.2,2.5-0.3,3.7-0.4
			l1.3-0.1l0.8,1c5.8,7.3,15.2,5.2,15.6,5.2l7.3-1.7l-5,5.6c-0.2,0.2-0.7,0.8-5.8,3.8c-3,1.7-4.8,4.7-6,7.3c1.9-1.2,4.3-2.7,7.4-4.6
			c12.8-7.7,28.3-1.5,29-1.2l2.2,0.9l-0.8,2c-0.1,0.5-0.5,4.2,3.4,12.8c2.6,5.8,4.7,11.3,6.3,15.6l3-19.4l3.3,2.9
			c0.4,0.4,2.7,2.5,7.2,10.9c2.8,5.2,8.6,7.9,13.3,9.3c-2.6-3.3-2.3-10.7-2.3-10.7l2.6,1.1c0,0,0,0,0,0c0,0,1.3,0.5,3.5,0.7l1.3,0.1
			l0.6,1.1c1.1,1.8,2,3.6,2.8,5.6c0.6,1.6,1.2,3.2,1.6,4.9c0,0.2,0.1,0.3,0.1,0.5l3.7,3.5l-3-0.2c0.6,3.8,0.7,7.6,0.3,11.4
			c-0.9,7.8-3.9,13-7,18.5l0,0c-2.3,4-7.4,12.1-16.8,21c-3.3,3.1-12.4,11.2-26.2,18.6c-13.9,7.5-24.7,10-35.2,12.5
			C532.9,416.9,527.8,417.6,522.8,416.3z M531.1,281c-0.7,0.1-1.4,0.2-2.1,0.3c-4.8,0.8-9.2,2.4-12.5,4.6c-1.4,0.9-5,3.7-8.2,8.7
			c-2.6,4-8.8,16.1-9.9,41.6c-0.9,20.4,2.2,34,4.4,44c1.5,6.4,3.7,14,9.2,21.5c2.4,3.2,5.3,7.2,10.3,9.3c4.7,1.9,9.4,1.3,17.1-0.5
			c10.6-2.5,20.7-4.9,34-12.1c13.3-7.1,22-14.9,25.2-17.9c8.9-8.5,13.8-16.1,16-19.9l0,0c3-5.3,5.6-9.9,6.4-16.7
			c0.4-3.7,0.3-7.5-0.5-11.2c-4.3-0.5-17.9-3-23.4-13.2c-1.2-2.2-2.2-3.9-3-5.3l-4.6,29.6l-3.1-10.2c0-0.1-3.5-11.7-9.3-24.5
			c-3.2-7-3.9-11.4-3.9-13.8c-4-1.2-14.5-3.7-23.1,1.5c-9.9,5.9-12.4,8-12.5,8.1l-4.7,3.9l0.7-6c0.1-0.5,1.4-10.3,8.4-15.8
			C538.4,286.3,534.4,284.7,531.1,281z M577.9,294.3L577.9,294.3L577.9,294.3z M548.5,282.8C548.5,282.8,548.5,282.8,548.5,282.8
			C548.5,282.8,548.5,282.8,548.5,282.8z"/>
		<path class="st5" d="M589.3,343.9l-3.1-10.2c0-0.1-3.5-11.7-9.3-24.5c-3.2-7-3.9-11.4-3.9-13.8c-4-1.2-14.5-3.7-23.1,1.5
			c-9.9,5.9-12.4,8-12.5,8.1l-4.7,3.9l0.7-6c0.1-0.5,1.4-10.3,8.4-15.8c-3.8-0.7-8.2-2.5-11.7-6.9c-0.4-0.6-0.8-1.2-1-1.7
			c-0.3-0.5-0.5-1-0.8-1.2c-9.9-9.5-4.3-23.3-4-23.9l2.9-6.9l1.7,7.3c0,0.1,3,12.3,13.7,15c4.6,1.1,9.4,1.7,14,2.2
			c8,0.9,14.9,1.6,19.1,5.1c6,4.9,11.2,7.8,13.7,8.4c3.7,0.9,12.4,6.1,19.1,14.4c0.6,0.7,1.1,1.4,1.6,2c5,6.3,7.1,8.9,11.5,9.9
			c2.9,0.7,10.4-0.9,14.4-2.1l4.4-1.3l-1.4,4.3c-0.1,0.3-2.2,6.3-11.3,9.3c-3.4,1.1-6.7,1.6-9.9,1.4c-0.3,0-0.5,0-0.8-0.1
			c0.5,0.8,1.2,1.7,2.3,2.5l0.1,0.1l8.9,8.4l-6.7-0.5c-0.7-0.1-18.3-1.4-24.7-13.4c-1.2-2.2-2.2-3.9-3-5.3L589.3,343.9z
			 M577.9,294.4c-0.1,0.5-0.5,4.2,3.4,12.8c2.6,5.8,4.7,11.3,6.3,15.6l3-19.4l3.3,2.9c0.4,0.4,2.7,2.5,7.2,10.9
			c2.7,5,8.2,7.8,12.9,9.2c-2.5-3.1-1.9-10.6-1.9-10.6l2.6,1.1c0,0,0,0,0,0c0,0,1.3,0.5,3.5,0.7c2.6,0.2,5.3-0.2,8.1-1.2
			c1.2-0.4,2.3-0.9,3.2-1.4c-3.1,0.5-6.5,0.8-8.8,0.3c-6-1.4-8.7-4.8-14.1-11.6c-0.5-0.6-1-1.3-1.6-2c-6.3-7.8-14.2-12.2-16.5-12.8
			c-3.7-0.9-9.7-4.5-15.6-9.3c-3.2-2.6-9.7-3.3-16.6-4.1c-4.8-0.5-9.8-1.1-14.6-2.3c-0.2,0-0.3-0.1-0.5-0.1
			c-6.9-1.9-11.2-6.7-13.7-10.9c-0.1,3.6,0.7,8,4.3,11.4c0.8,0.8,1.3,1.7,1.7,2.5c0.2,0.4,0.4,0.7,0.5,0.9
			c5.8,7.3,15.2,5.2,15.6,5.2l7.3-1.7l-5,5.6c-0.2,0.2-0.7,0.8-5.8,3.8c-3,1.7-4.8,4.7-6,7.3c1.9-1.2,4.3-2.7,7.4-4.6
			c12.8-7.7,28.3-1.5,29-1.2l2.2,0.9L577.9,294.4z M577.9,294.3C577.9,294.3,577.9,294.3,577.9,294.3S577.9,294.3,577.9,294.3z
			 M548.5,282.8C548.5,282.8,548.5,282.8,548.5,282.8C548.5,282.8,548.5,282.8,548.5,282.8z"/>
		<path class="st5" d="M586.6,283.3l-4.4-2c1.4-3.2,2.9-6.3,4.5-9.3c0.7-1.3,1.3-2.4,1.8-3.4c1.4-2.6,2.5-4.6,3.6-7.5
			c1.6-4.1,2.4-6.3,1.8-7.3c-1-1.8-4.5-2.2-6.4-2.2c-1.2,0-4,0.1-4.9,1.3c-0.5,0.7-0.2,1.8,0.6,4.3c0.7,2.2,1.7,5,1.6,8.3
			c-0.1,4.9-2.2,9.8-6.4,14.6l-3.6-3.2c3.4-3.9,5.1-7.8,5.2-11.5c0-2.5-0.7-4.7-1.4-6.7c-1-2.8-2-5.8,0-8.6c2.3-3.2,6.8-3.3,8.7-3.4
			c1.9,0,8.3,0.2,10.8,4.7c1.6,3.1,0.4,6.2-1.6,11.4c-1.2,3.2-2.4,5.3-3.9,8c-0.5,1-1.1,2.1-1.8,3.3
			C589.5,277.2,588,280.3,586.6,283.3z"/>
	</g>
	<path class="st5" d="M517.9,317.1L517.9,317.1L517.9,317.1c-0.3-0.7-1.3-3-0.5-5.6c0.2-0.7,0.9-3.1,3.1-3.8
		c0.2-0.1,1.8-0.6,2.8,0.2c1.5,1.2,0.5,4.5,0.3,5.1c-0.3,0.9-1.6,3.6-2.9,4.4C519.3,318.1,518.7,317.5,517.9,317.1"/>
	<path class="st5" d="M560.9,325.7L560.9,325.7L560.9,325.7c-0.3-0.7-1.3-3-0.5-5.6c0.2-0.7,0.9-3.1,3.1-3.8
		c0.2-0.1,1.8-0.6,2.8,0.2c1.5,1.2,0.5,4.5,0.3,5.1c-0.3,0.9-1.6,3.6-2.9,4.4C562.4,326.7,561.7,326.2,560.9,325.7"/>
	<path class="st5" d="M592.8,358.2L592.8,358.2L592.8,358.2c-0.3-0.7-1.3-3-0.5-5.6c0.2-0.7,0.9-3.1,3.1-3.8
		c0.2-0.1,1.8-0.6,2.8,0.2c1.5,1.2,0.5,4.5,0.3,5.1c-0.3,0.9-1.6,3.6-2.9,4.4C594.2,359.2,593.6,358.7,592.8,358.2"/>
	<path class="st5" d="M531.2,341.7L531.2,341.7L531.2,341.7c-0.3-0.7-1.3-3-0.5-5.6c0.2-0.7,0.9-3.1,3.1-3.8
		c0.2-0.1,1.8-0.6,2.8,0.2c1.5,1.2,0.5,4.5,0.3,5.1c-0.3,0.9-1.6,3.6-2.9,4.4C532.7,342.7,532,342.2,531.2,341.7"/>
	<path class="st5" d="M513,358.8L513,358.8L513,358.8c-0.3-0.7-1.3-3-0.5-5.6c0.2-0.7,0.9-3.1,3.1-3.8c0.2-0.1,1.8-0.6,2.8,0.2
		c1.5,1.2,0.5,4.5,0.3,5.1c-0.3,0.9-1.6,3.6-2.9,4.4S513.8,359.3,513,358.8"/>
	<path class="st5" d="M540.1,374.4L540.1,374.4L540.1,374.4c-0.3-0.7-1.3-3-0.5-5.6c0.2-0.7,0.9-3.1,3.1-3.8
		c0.2-0.1,1.8-0.6,2.8,0.2c1.5,1.2,0.5,4.5,0.3,5.1c-0.3,0.9-1.6,3.6-2.9,4.4C541.6,375.4,540.9,374.8,540.1,374.4"/>
	<path class="st5" d="M517.3,393L517.3,393L517.3,393c-0.3-0.7-1.3-3-0.5-5.6c0.2-0.7,0.9-3.1,3.1-3.8c0.2-0.1,1.8-0.6,2.8,0.2
		c1.5,1.2,0.5,4.5,0.3,5.1c-0.3,0.9-1.6,3.6-2.9,4.4S518.1,393.5,517.3,393"/>
	<path class="st5" d="M539.5,402L539.5,402L539.5,402c-0.3-0.7-1.3-3-0.5-5.6c0.2-0.7,0.9-3.1,3.1-3.8c0.2-0.1,1.8-0.6,2.8,0.2
		c1.5,1.2,0.5,4.5,0.3,5.1c-0.3,0.9-1.6,3.6-2.9,4.4C541,403,540.3,402.5,539.5,402"/>
	<path class="st5" d="M571.4,385.7L571.4,385.7L571.4,385.7c-0.3-0.7-1.3-3-0.5-5.6c0.2-0.7,0.9-3.1,3.1-3.8
		c0.2-0.1,1.8-0.6,2.8,0.2c1.5,1.2,0.5,4.5,0.3,5.1c-0.3,0.9-1.6,3.6-2.9,4.4S572.2,386.2,571.4,385.7"/>
	<path class="st5" d="M566.4,359.5L566.4,359.5L566.4,359.5c-0.3-0.7-1.3-3-0.5-5.6c0.2-0.7,0.9-3.1,3.1-3.8
		c0.2-0.1,1.8-0.6,2.8,0.2c1.5,1.2,0.5,4.5,0.3,5.1c-0.3,0.9-1.6,3.6-2.9,4.4S567.2,360,566.4,359.5"/>
</g>
</svg>
